<?xml version="1.0" standalone="no"?>
<!DOCTYPE svg PUBLIC "-//W3C//DTD SVG 20010904//EN"
 "http://www.w3.org/TR/2001/REC-SVG-20010904/DTD/svg10.dtd">
<svg version="1.0" xmlns="http://www.w3.org/2000/svg"
 width="236.000000pt" height="236.000000pt" viewBox="0 0 236.000000 236.000000"
 preserveAspectRatio="xMidYMid meet">
<metadata>
Created by potrace 1.16, written by Peter Selinger 2001-2019
</metadata>
<g transform="translate(0.000000,236.000000) scale(0.100000,-0.100000)"
fill="#000000" stroke="none">
<path d="M1305 2033 c-27 -3 -52 -9 -55 -14 -4 -5 -35 -18 -71 -28 -35 -11
-91 -29 -124 -40 -33 -11 -80 -26 -105 -32 -25 -7 -39 -14 -32 -16 7 -3 -5
-16 -30 -33 -49 -31 -178 -162 -178 -180 0 -9 4 -9 17 1 15 12 16 12 9 -6 -4
-11 -9 -42 -12 -70 l-4 -50 19 41 c29 63 37 60 33 -11 -5 -72 4 -135 18 -135
6 0 10 19 10 43 0 23 5 49 10 57 7 11 10 5 10 -25 0 -22 3 -57 6 -77 6 -34 5
-36 -15 -31 -14 3 -23 0 -27 -12 -9 -22 33 -250 53 -288 12 -24 13 -48 4 -153
-18 -202 -13 -369 10 -333 5 9 10 4 14 -17 22 -97 60 -178 74 -155 5 7 17 -3
32 -26 13 -21 40 -48 59 -61 29 -20 43 -23 83 -18 27 4 56 2 67 -4 18 -9 20
-8 20 17 l1 28 20 -24 c11 -13 24 -31 28 -39 7 -13 13 -12 36 6 28 23 45 21
45 -4 0 -18 14 -18 30 1 7 8 39 29 72 47 32 17 71 45 85 62 14 17 32 30 38 28
17 -3 52 82 61 146 3 28 10 49 15 46 21 -12 2 286 -27 431 -5 24 -4 28 7 17
30 -28 54 -1 38 44 -4 11 -4 77 0 145 9 142 2 162 -45 140 -24 -10 -26 -10
-19 6 4 10 9 81 11 159 2 97 8 152 19 177 17 41 19 61 6 53 -5 -3 -11 23 -13
59 -4 67 -13 89 -28 66 -7 -12 -14 -9 -40 12 -34 29 -118 58 -159 55 -14 -1
-48 -3 -76 -5z m144 -62 c48 -25 60 -41 81 -103 l16 -51 22 44 21 44 0 -35 c1
-19 -6 -47 -13 -62 -16 -30 -9 -36 14 -15 7 6 -2 -10 -20 -36 -35 -50 -60 -75
-60 -61 0 4 -7 -1 -15 -12 -14 -18 -14 -17 -5 9 15 42 12 124 -5 157 -19 37
-71 76 -114 85 l-34 7 37 -32 c20 -18 44 -46 52 -63 20 -38 29 -164 15 -197
-11 -24 -11 -24 -8 8 2 17 2 32 0 32 -1 0 -14 -21 -27 -47 -13 -27 -36 -59
-51 -73 l-28 -25 26 40 c37 57 57 119 57 179 0 46 -4 56 -32 84 -35 33 -94 62
-128 62 -11 0 -20 5 -20 10 0 10 28 7 83 -10 17 -6 25 -6 22 0 -3 5 -31 17
-62 27 -54 17 -56 18 -28 24 55 12 145 9 180 -5 50 -21 43 -9 -7 14 -24 11
-35 20 -25 20 10 0 35 -9 56 -19z m-190 -87 c61 -31 100 -82 108 -143 7 -48
-2 -101 -22 -127 -12 -17 -13 -14 -4 23 12 54 -3 124 -37 176 -33 50 -39 47
-12 -5 27 -52 29 -155 4 -208 -9 -19 -14 -26 -10 -15 3 11 8 47 11 80 4 52 1
65 -22 100 -17 27 -23 32 -18 15 21 -65 -17 -209 -66 -254 -16 -15 -17 -10 -9
64 9 80 -1 152 -22 165 -6 4 -6 -4 0 -20 14 -36 11 -103 -6 -145 l-13 -35 5
47 c12 93 -35 187 -121 240 l-30 18 31 0 c53 0 126 -28 162 -62 26 -25 32 -27
23 -11 -20 39 -75 73 -130 80 -59 7 -64 16 -18 31 62 20 139 14 196 -14z
m-211 -81 c62 -47 84 -119 68 -228 -10 -63 -26 -56 -26 11 0 101 -41 181 -100
197 -18 5 -15 -1 14 -30 48 -48 68 -123 47 -177 -5 -14 -11 -3 -24 42 -19 69
-56 119 -104 138 -47 20 -59 17 -36 -8 11 -13 31 -43 43 -68 13 -25 31 -56 41
-69 11 -13 19 -32 19 -43 0 -27 -87 73 -110 127 -21 50 -44 61 -78 39 l-24
-16 23 -12 c13 -6 32 -29 42 -51 11 -22 31 -53 45 -69 21 -23 23 -26 7 -18
-29 15 -51 42 -68 85 -18 41 -48 50 -66 20 -15 -27 -13 -10 5 33 18 46 41 66
109 100 59 30 131 28 173 -3z m472 -194 c-22 -50 -27 -150 -9 -214 11 -38 11
-39 24 -16 11 21 13 13 19 -66 7 -92 -6 -218 -25 -256 -18 -34 -52 -68 -79
-79 -18 -7 -21 -11 -11 -17 11 -7 11 -13 0 -37 -18 -37 -40 -41 -74 -11 -20
16 -28 34 -29 58 -1 19 -7 45 -14 57 -9 16 -11 39 -7 73 7 47 8 49 38 49 24 0
28 3 17 10 -13 8 -13 10 1 10 9 0 22 7 29 15 8 9 21 13 36 9 25 -6 33 9 13 22
-15 9 9 24 39 24 27 0 29 16 3 30 -32 16 -75 12 -133 -15 -29 -14 -64 -25 -77
-25 -22 0 -23 -3 -16 -37 4 -21 9 -72 10 -113 2 -41 6 -87 10 -101 5 -21 2
-30 -16 -43 -29 -20 -49 -20 -75 -2 -17 13 -18 18 -7 45 6 17 8 33 4 35 -6 4
-3 50 15 186 l7 55 -20 -24 -19 -24 -65 32 c-69 34 -92 37 -136 20 l-28 -11
39 -17 c26 -11 36 -20 28 -25 -19 -11 -14 -22 10 -23 12 -1 26 3 30 10 6 9 8
9 8 0 0 -6 15 -15 33 -19 28 -6 29 -8 12 -15 -17 -6 -15 -8 11 -8 29 -1 32 -4
37 -43 4 -31 1 -54 -12 -80 -12 -25 -15 -40 -8 -47 15 -15 -20 -99 -44 -106
-30 -10 -58 4 -74 35 -13 25 -13 29 2 34 13 5 9 11 -18 25 -68 36 -92 98 -105
276 -5 74 -4 88 7 78 7 -7 17 -13 21 -13 10 0 10 112 -1 166 l-8 42 31 -4 c17
-1 46 -9 64 -16 30 -12 35 -11 47 5 13 18 14 17 20 -2 8 -25 22 -27 46 -5 16
14 18 14 29 -5 14 -27 25 -26 57 5 l26 26 -5 -26 c-6 -30 12 -35 32 -11 10 12
15 13 20 4 9 -14 43 2 83 39 25 24 27 24 27 6 1 -16 5 -15 28 12 16 16 33 29
38 28 5 -2 25 17 44 41 19 24 36 43 37 41 2 -2 -6 -23 -17 -47z m72 -926 c-10
-77 -41 -164 -42 -119 0 12 -11 2 -32 -30 -30 -44 -95 -100 -105 -90 -3 2 3
18 12 36 9 18 14 34 12 37 -3 2 -10 -5 -17 -16 -11 -22 -110 -105 -116 -98 -2
2 1 18 6 37 12 43 6 49 -15 13 l-16 -28 6 50 c6 53 -1 72 -57 151 -15 22 -30
52 -34 69 -7 27 -2 24 49 -30 53 -56 56 -58 51 -30 -3 17 -1 41 5 55 9 22 10
23 10 4 1 -11 10 -47 21 -79 11 -32 20 -76 20 -99 0 -38 1 -39 14 -20 21 29
30 113 18 157 -13 46 1 49 28 5 l19 -32 14 34 c8 19 17 42 20 50 4 8 5 -30 4
-85 -2 -55 -7 -109 -11 -120 -5 -11 5 0 22 24 27 38 40 75 82 216 5 17 12 71
16 120 l8 90 10 -95 c6 -63 5 -122 -2 -177z m-697 112 c6 -52 10 -63 15 -45 6
22 8 19 15 -20 8 -47 44 -154 50 -148 2 2 0 21 -5 42 -4 21 -6 54 -3 73 l6 36
19 -24 c10 -13 43 -67 73 -120 58 -102 107 -162 65 -79 -31 61 -60 148 -60
179 l1 26 16 -30 17 -30 6 25 c6 24 7 24 27 -15 12 -22 36 -53 53 -70 43 -40
70 -100 69 -155 l0 -45 -24 50 c-14 28 -39 64 -56 80 -28 26 -30 27 -16 5 18
-27 22 -77 8 -99 -8 -12 -18 -10 -60 16 -27 17 -51 27 -53 22 -5 -16 -83 48
-103 85 -11 20 -22 31 -26 25 -12 -20 -59 249 -58 331 l1 35 8 -40 c4 -22 11
-71 15 -110z m530 81 c22 -1 55 3 74 7 34 7 34 7 16 -13 -17 -18 -17 -20 -1
-20 9 0 14 -4 11 -10 -8 -13 -96 -13 -131 0 -38 15 -43 3 -5 -13 42 -18 30
-27 -35 -27 -40 0 -56 4 -63 18 -10 16 -10 16 -11 -1 0 -24 -22 -17 -36 11
-11 21 -11 21 -33 -6 -12 -15 -19 -21 -16 -14 8 16 3 15 -31 -3 -16 -8 -44
-15 -62 -15 l-33 0 28 25 28 26 -42 -21 c-44 -21 -127 -27 -138 -10 -3 6 2 10
11 10 16 0 15 2 -2 21 -19 22 -19 22 5 9 16 -8 38 -9 70 -4 56 9 46 6 101 32
32 15 56 20 81 16 20 -4 45 -2 55 4 12 7 32 5 68 -6 28 -9 69 -16 91 -16z"/>
</g>
</svg>
