<?xml version="1.0" standalone="no"?>
<!DOCTYPE svg PUBLIC "-//W3C//DTD SVG 20010904//EN"
 "http://www.w3.org/TR/2001/REC-SVG-20010904/DTD/svg10.dtd">
<svg version="1.0" xmlns="http://www.w3.org/2000/svg"
 width="800.000000pt" height="800.000000pt" viewBox="0 0 800.000000 800.000000"
 preserveAspectRatio="xMidYMid meet">
<metadata>
Created by potrace 1.16, written by Peter Selinger 2001-2019
</metadata>
<g transform="translate(0.000000,800.000000) scale(0.100000,-0.100000)"
fill="#000000" stroke="none">
<path d="M1801 7047 c-1 -10 107 -593 240 -1295 132 -702 273 -1452 313 -1667
l74 -390 -128 -245 c-70 -135 -173 -335 -230 -445 -57 -110 -121 -230 -142
-268 -83 -144 -191 -244 -335 -308 -108 -49 -222 -130 -309 -221 -96 -100
-153 -181 -205 -293 -54 -116 -73 -199 -72 -330 0 -93 4 -122 27 -188 85 -249
309 -379 557 -323 321 72 559 414 576 828 4 95 1 154 -12 235 -32 196 -4 342
109 556 29 56 90 174 136 262 45 88 116 225 158 305 41 80 78 149 82 153 10
11 442 -828 470 -912 36 -107 46 -206 31 -308 -29 -203 -31 -239 -21 -341 30
-290 160 -538 357 -679 131 -93 310 -135 437 -101 l49 13 76 -75 c116 -116
257 -180 393 -180 68 0 98 22 98 70 0 43 -34 71 -119 98 -83 27 -141 68 -194
137 -53 70 -54 81 -12 150 164 273 66 676 -231 954 -83 78 -153 124 -294 196
-92 47 -128 73 -185 129 -39 39 -87 96 -107 126 -19 30 -146 269 -282 531
l-246 477 25 133 c14 74 37 195 51 269 14 74 36 191 49 260 14 69 54 280 89
470 89 474 214 1137 292 1550 116 616 125 663 122 672 -2 5 -57 -163 -122
-374 -65 -211 -172 -554 -236 -763 -65 -209 -139 -446 -164 -527 -76 -244
-133 -427 -229 -736 -50 -161 -94 -287 -98 -280 -3 7 -50 155 -104 328 -53
173 -139 450 -190 615 -51 165 -193 622 -315 1015 -251 812 -228 740 -229 717z
m909 -3022 c109 -56 107 -215 -3 -269 -108 -52 -240 55 -208 170 14 49 27 66
71 93 41 25 99 27 140 6z m-828 -1770 c77 -58 113 -180 105 -360 -6 -144 -29
-232 -94 -363 -61 -124 -146 -213 -257 -268 -70 -34 -87 -39 -155 -39 -63 0
-85 5 -133 28 -69 34 -120 91 -150 166 -33 85 -32 239 4 342 76 217 274 427
472 500 67 25 170 22 208 -6z m1735 4 c159 -59 343 -230 428 -399 69 -136 90
-304 52 -420 -83 -253 -363 -292 -578 -80 -105 105 -167 226 -205 403 -18 87
-20 235 -4 314 16 77 56 150 100 179 46 31 127 32 207 3z"/>
<path d="M5770 6895 c-289 -30 -531 -54 -537 -55 -26 0 -91 -72 -112 -121 -12
-27 -25 -72 -28 -100 l-6 -49 511 0 511 0 15 -22 c20 -28 20 -33 0 -52 -14
-14 -75 -16 -525 -16 l-509 0 0 -60 0 -60 510 0 510 0 15 -24 c13 -19 14 -29
5 -45 -11 -21 -15 -21 -525 -21 l-515 0 0 -60 0 -60 501 0 c305 0 507 -4 518
-10 25 -13 33 -37 21 -61 -10 -18 -27 -19 -525 -19 l-515 0 0 -65 0 -65 515 0
c504 0 515 0 525 -20 8 -14 8 -26 0 -40 -10 -20 -21 -20 -525 -20 l-515 0 0
-65 0 -65 515 0 c504 0 515 0 525 -20 8 -14 8 -26 0 -40 -10 -20 -21 -20 -525
-20 l-515 0 0 -65 0 -65 515 0 c504 0 515 0 525 -20 8 -14 8 -26 0 -40 -10
-20 -21 -20 -525 -20 l-515 0 0 -65 0 -65 515 0 c498 0 515 -1 525 -19 12 -24
4 -48 -21 -61 -11 -6 -213 -10 -518 -10 l-501 0 0 -60 0 -60 515 0 c510 0 514
0 525 -21 9 -16 8 -26 -5 -45 l-15 -24 -510 0 -510 0 0 -60 0 -60 509 0 c455
0 511 -2 526 -16 16 -17 12 -53 -9 -66 -6 -4 -239 -8 -518 -8 l-508 0 0 -60 0
-60 509 0 c455 0 511 -2 526 -16 16 -17 12 -53 -9 -66 -6 -4 -239 -8 -518 -8
l-508 0 0 -60 0 -60 509 0 510 0 15 -22 c20 -28 20 -33 0 -52 -14 -14 -75 -16
-525 -16 l-509 0 0 -60 0 -60 499 0 c275 0 507 -3 515 -6 26 -10 38 -41 26
-64 -10 -20 -21 -20 -525 -20 l-515 0 0 -65 0 -64 173 0 c94 1 326 1 514 0
332 -1 343 -2 353 -21 8 -14 8 -26 0 -40 -10 -20 -21 -20 -525 -20 l-515 0 0
-63 0 -64 243 -1 c133 -1 364 -1 514 -2 262 0 273 -1 283 -20 8 -14 8 -26 0
-40 -10 -20 -21 -20 -525 -20 l-515 0 0 -65 0 -65 515 0 c504 0 515 0 525 -20
8 -14 8 -26 0 -40 -10 -20 -21 -20 -525 -20 l-515 0 0 -65 0 -65 515 0 c504 0
515 0 525 -20 16 -29 -3 -58 -43 -65 -17 -3 -249 -5 -515 -3 l-482 3 0 -62 0
-63 515 0 c498 0 515 -1 525 -19 12 -24 4 -48 -21 -61 -11 -6 -213 -10 -518
-10 l-501 0 0 -60 0 -60 508 0 c279 0 512 -4 518 -8 19 -13 23 -39 8 -61 -15
-21 -17 -21 -525 -21 l-509 0 0 -60 0 -60 509 0 c450 0 511 -2 525 -16 20 -19
20 -24 0 -52 l-15 -22 -510 0 -509 0 0 -60 0 -60 509 0 510 0 15 -22 c20 -28
20 -33 0 -52 -14 -14 -75 -16 -525 -16 l-509 0 0 -60 0 -60 508 0 c497 0 509
0 527 -20 15 -17 16 -24 7 -45 l-12 -25 -515 0 -515 0 0 -60 0 -60 501 0 c305
0 507 -4 518 -10 25 -13 33 -37 21 -61 -10 -18 -27 -19 -525 -19 l-515 0 0
-65 0 -65 515 0 c504 0 515 0 525 -20 8 -14 8 -26 0 -40 -10 -20 -21 -20 -525
-20 l-515 0 0 -65 0 -65 515 0 c504 0 515 0 525 -20 8 -14 8 -26 0 -40 -10
-20 -21 -20 -525 -20 l-515 0 0 -65 0 -65 515 0 c504 0 515 0 525 -20 8 -14 8
-26 0 -40 -10 -20 -21 -20 -525 -20 l-515 0 0 -65 0 -65 515 0 c498 0 515 -1
525 -19 12 -24 4 -48 -21 -61 -11 -6 -214 -10 -520 -10 l-502 0 7 -52 c13 -94
67 -187 123 -208 35 -14 1042 -112 1108 -108 111 7 202 96 259 256 l31 87 3
2660 c2 2864 5 2740 -48 2878 -47 124 -145 218 -240 231 -19 2 -271 -20 -560
-49z"/>
</g>
</svg>
