<?xml version="1.0" standalone="no"?>
<!DOCTYPE svg PUBLIC "-//W3C//DTD SVG 20010904//EN"
 "http://www.w3.org/TR/2001/REC-SVG-20010904/DTD/svg10.dtd">
<svg version="1.0" xmlns="http://www.w3.org/2000/svg"
 width="225.000000pt" height="225.000000pt" viewBox="0 0 225.000000 225.000000"
 preserveAspectRatio="xMidYMid meet">
<metadata>
Created by potrace 1.16, written by Peter Selinger 2001-2019
</metadata>
<g transform="translate(0.000000,225.000000) scale(0.100000,-0.100000)"
fill="#000000" stroke="none">
<path d="M1590 2221 c-5 -11 -10 -23 -10 -26 0 -4 47 -55 103 -114 118 -122
144 -170 133 -248 -3 -25 -8 -49 -11 -51 -3 -3 -38 27 -79 66 -41 40 -80 72
-88 72 -18 0 -48 -31 -48 -50 0 -7 38 -52 85 -99 47 -48 85 -91 85 -96 0 -5
-19 -37 -42 -72 l-41 -64 -76 75 c-76 76 -96 87 -119 64 -24 -24 -11 -51 63
-132 l74 -82 -51 -62 -51 -63 -77 76 c-43 41 -84 75 -92 75 -18 0 -48 -31 -48
-49 0 -8 35 -49 78 -93 l77 -80 -59 -55 -58 -54 -83 80 c-81 79 -109 93 -133
69 -25 -25 -11 -54 64 -129 l76 -76 -29 -20 c-15 -11 -48 -30 -72 -42 l-43
-23 -88 86 c-48 47 -94 86 -102 86 -18 0 -48 -31 -48 -49 0 -7 32 -46 70 -86
l71 -72 -38 -7 c-65 -10 -132 -7 -171 10 -20 8 -85 62 -143 120 -58 57 -113
104 -122 104 -20 0 -47 -27 -47 -47 0 -9 40 -57 88 -107 88 -90 89 -92 101
-161 23 -125 20 -130 -90 -200 -132 -82 -168 -113 -232 -198 -92 -121 -137
-227 -137 -327 0 -74 24 -119 81 -148 94 -49 210 0 365 153 110 109 146 168
209 336 53 144 100 181 292 228 200 49 328 127 523 321 173 173 276 323 333
489 25 72 30 102 31 186 1 88 -2 107 -25 156 -39 82 -139 169 -195 169 -9 0
-58 41 -108 90 -95 93 -126 108 -146 71z m370 -374 c41 -94 17 -241 -65 -395
-105 -200 -385 -480 -570 -571 -34 -17 -111 -42 -171 -57 -123 -29 -196 -61
-254 -112 -48 -40 -60 -63 -101 -180 -17 -48 -49 -118 -71 -157 -77 -131 -263
-285 -345 -285 -85 0 -88 107 -7 260 51 98 161 209 271 273 127 74 151 111
140 218 l-7 58 33 -7 c68 -15 189 -5 272 21 141 46 243 115 395 267 282 282
423 509 424 682 0 63 1 66 17 52 9 -8 27 -39 39 -67z"/>
<path d="M1236 2184 c-26 -26 -19 -43 51 -115 58 -60 71 -70 98 -67 25 3 30 8
33 33 3 27 -7 40 -67 98 -72 70 -89 77 -115 51z"/>
<path d="M1020 2042 c-16 -13 -21 -24 -16 -39 8 -26 149 -163 168 -163 23 0
51 36 44 58 -7 22 -149 162 -164 162 -5 0 -20 -8 -32 -18z"/>
<path d="M1342 1948 c-7 -7 -12 -21 -12 -33 0 -25 98 -125 122 -125 18 0 48
26 48 41 0 18 -112 129 -130 129 -9 0 -21 -5 -28 -12z"/>
<path d="M826 1871 c-11 -12 -15 -27 -12 -39 10 -29 141 -152 164 -152 27 0
45 25 38 53 -6 27 -138 157 -158 157 -8 0 -23 -9 -32 -19z"/>
<path d="M1206 1764 c-26 -25 -19 -44 37 -101 55 -54 85 -65 107 -38 20 24 4
59 -49 108 -54 50 -71 56 -95 31z"/>
<path d="M666 1671 c-25 -28 -15 -50 59 -120 52 -51 70 -62 92 -59 23 2 29 9
31 33 3 27 -7 40 -67 98 -38 37 -76 67 -83 67 -8 0 -23 -9 -32 -19z"/>
<path d="M1026 1584 c-26 -25 -19 -44 37 -101 55 -54 85 -65 107 -38 20 24 4
59 -49 108 -54 50 -71 56 -95 31z"/>
<path d="M546 1431 c-11 -12 -15 -27 -12 -39 9 -26 120 -132 140 -132 19 0 46
27 46 47 0 21 -122 143 -142 143 -8 0 -23 -9 -32 -19z"/>
<path d="M846 1404 c-25 -24 -19 -41 31 -95 39 -41 52 -49 76 -47 21 2 33 10
39 27 7 21 1 31 -45 77 -57 57 -76 64 -101 38z"/>
</g>
</svg>
