<?xml version="1.0" standalone="no"?>
<!DOCTYPE svg PUBLIC "-//W3C//DTD SVG 20010904//EN"
 "http://www.w3.org/TR/2001/REC-SVG-20010904/DTD/svg10.dtd">
<svg version="1.0" xmlns="http://www.w3.org/2000/svg"
 width="225.000000pt" height="225.000000pt" viewBox="0 0 225.000000 225.000000"
 preserveAspectRatio="xMidYMid meet">
<metadata>
Created by potrace 1.16, written by Peter Selinger 2001-2019
</metadata>
<g transform="translate(0.000000,225.000000) scale(0.100000,-0.100000)"
fill="#000000" stroke="none">
<path d="M1005 1960 c-303 -46 -566 -261 -669 -547 l-26 -73 73 0 73 0 13 38
c39 113 143 245 254 323 399 280 955 74 1084 -401 24 -88 24 -262 0 -350 -129
-475 -685 -681 -1084 -401 -111 78 -215 210 -254 324 l-13 37 -73 0 -73 0 26
-73 c165 -457 693 -680 1136 -479 241 109 423 336 479 597 7 33 13 110 13 170
0 61 -6 137 -13 170 -67 314 -309 566 -617 645 -88 23 -247 32 -329 20z"/>
<path d="M1027 1402 l-47 -48 75 -74 c41 -41 75 -78 75 -82 0 -5 -191 -8 -425
-8 l-425 0 0 -65 0 -65 425 0 c234 0 425 -3 425 -7 0 -4 -34 -42 -75 -83 l-75
-76 50 -49 50 -50 165 165 165 165 -162 162 c-90 90 -165 163 -168 163 -3 0
-27 -22 -53 -48z"/>
</g>
</svg>
