<?xml version="1.0" standalone="no"?>
<!DOCTYPE svg PUBLIC "-//W3C//DTD SVG 20010904//EN"
 "http://www.w3.org/TR/2001/REC-SVG-20010904/DTD/svg10.dtd">
<svg version="1.0" xmlns="http://www.w3.org/2000/svg"
 width="509.000000pt" height="340.000000pt" viewBox="0 0 509.000000 340.000000"
 preserveAspectRatio="xMidYMid meet">
<metadata>
Created by potrace 1.16, written by Peter Selinger 2001-2019
</metadata>
<g transform="translate(0.000000,340.000000) scale(0.100000,-0.100000)"
fill="#000000" stroke="none">
<path d="M1956 2150 c-102 -30 -193 -76 -438 -216 -292 -167 -412 -224 -488
-231 -114 -11 -160 34 -160 154 0 79 26 141 72 176 29 22 94 27 163 12 l40 -8
-19 21 c-26 30 -99 52 -171 52 -161 0 -294 -152 -295 -335 0 -178 89 -339 233
-419 72 -41 210 -88 319 -110 258 -53 745 32 1066 185 45 22 121 69 167 104
47 36 87 65 90 65 3 0 43 -29 90 -65 162 -123 408 -218 702 -270 141 -24 420
-31 528 -11 273 48 441 153 530 330 39 77 40 82 40 185 0 96 -3 112 -28 162
-35 72 -118 158 -180 188 -95 46 -231 15 -283 -64 -24 -37 -10 -42 30 -11 96
73 238 -14 253 -155 8 -84 -13 -124 -83 -156 -117 -53 -218 -20 -504 167 -346
225 -429 260 -645 268 -137 4 -142 4 -235 -28 -52 -17 -123 -49 -156 -71 l-62
-40 -88 51 c-118 67 -167 81 -304 86 -95 3 -127 0 -184 -16z"/>
</g>
</svg>
