<!--иконка расческа в проект пинк-->
<svg xmlns="http://www.w3.org/2000/svg">
    <symbol id="icon-comb" viewBox="0 0 225.000000 225.000000">
        <g transform="translate(0.000000,225.000000) scale(0.100000,-0.100000)"
 stroke="none">
<path d="M1590 2221 c-5 -11 -10 -23 -10 -26 0 -4 47 -55 103 -114 118 -122
144 -170 133 -248 -3 -25 -8 -49 -11 -51 -3 -3 -38 27 -79 66 -41 40 -80 72
-88 72 -18 0 -48 -31 -48 -50 0 -7 38 -52 85 -99 47 -48 85 -91 85 -96 0 -5
-19 -37 -42 -72 l-41 -64 -76 75 c-76 76 -96 87 -119 64 -24 -24 -11 -51 63
-132 l74 -82 -51 -62 -51 -63 -77 76 c-43 41 -84 75 -92 75 -18 0 -48 -31 -48
-49 0 -8 35 -49 78 -93 l77 -80 -59 -55 -58 -54 -83 80 c-81 79 -109 93 -133
69 -25 -25 -11 -54 64 -129 l76 -76 -29 -20 c-15 -11 -48 -30 -72 -42 l-43
-23 -88 86 c-48 47 -94 86 -102 86 -18 0 -48 -31 -48 -49 0 -7 32 -46 70 -86
l71 -72 -38 -7 c-65 -10 -132 -7 -171 10 -20 8 -85 62 -143 120 -58 57 -113
104 -122 104 -20 0 -47 -27 -47 -47 0 -9 40 -57 88 -107 88 -90 89 -92 101
-161 23 -125 20 -130 -90 -200 -132 -82 -168 -113 -232 -198 -92 -121 -137
-227 -137 -327 0 -74 24 -119 81 -148 94 -49 210 0 365 153 110 109 146 168
209 336 53 144 100 181 292 228 200 49 328 127 523 321 173 173 276 323 333
489 25 72 30 102 31 186 1 88 -2 107 -25 156 -39 82 -139 169 -195 169 -9 0
-58 41 -108 90 -95 93 -126 108 -146 71z m370 -374 c41 -94 17 -241 -65 -395
-105 -200 -385 -480 -570 -571 -34 -17 -111 -42 -171 -57 -123 -29 -196 -61
-254 -112 -48 -40 -60 -63 -101 -180 -17 -48 -49 -118 -71 -157 -77 -131 -263
-285 -345 -285 -85 0 -88 107 -7 260 51 98 161 209 271 273 127 74 151 111
140 218 l-7 58 33 -7 c68 -15 189 -5 272 21 141 46 243 115 395 267 282 282
423 509 424 682 0 63 1 66 17 52 9 -8 27 -39 39 -67z"/>
<path d="M1236 2184 c-26 -26 -19 -43 51 -115 58 -60 71 -70 98 -67 25 3 30 8
33 33 3 27 -7 40 -67 98 -72 70 -89 77 -115 51z"/>
<path d="M1020 2042 c-16 -13 -21 -24 -16 -39 8 -26 149 -163 168 -163 23 0
51 36 44 58 -7 22 -149 162 -164 162 -5 0 -20 -8 -32 -18z"/>
<path d="M1342 1948 c-7 -7 -12 -21 -12 -33 0 -25 98 -125 122 -125 18 0 48
26 48 41 0 18 -112 129 -130 129 -9 0 -21 -5 -28 -12z"/>
<path d="M826 1871 c-11 -12 -15 -27 -12 -39 10 -29 141 -152 164 -152 27 0
45 25 38 53 -6 27 -138 157 -158 157 -8 0 -23 -9 -32 -19z"/>
<path d="M1206 1764 c-26 -25 -19 -44 37 -101 55 -54 85 -65 107 -38 20 24 4
59 -49 108 -54 50 -71 56 -95 31z"/>
<path d="M666 1671 c-25 -28 -15 -50 59 -120 52 -51 70 -62 92 -59 23 2 29 9
31 33 3 27 -7 40 -67 98 -38 37 -76 67 -83 67 -8 0 -23 -9 -32 -19z"/>
<path d="M1026 1584 c-26 -25 -19 -44 37 -101 55 -54 85 -65 107 -38 20 24 4
59 -49 108 -54 50 -71 56 -95 31z"/>
<path d="M546 1431 c-11 -12 -15 -27 -12 -39 9 -26 120 -132 140 -132 19 0 46
27 46 47 0 21 -122 143 -142 143 -8 0 -23 -9 -32 -19z"/>
<path d="M846 1404 c-25 -24 -19 -41 31 -95 39 -41 52 -49 76 -47 21 2 33 10
39 27 7 21 1 31 -45 77 -57 57 -76 64 -101 38z"/>
</g>
    </symbol>
</svg>
<!--Академия иконка-->
<svg xmlns="http://www.w3.org/2000/svg">
        <defs>
            <symbol id="ring-logo" fill="#0074D9" viewbox="0 0 150 150">
            <circle class="ring" r="65" cx="75" cy="75" stroke="#ffdc00" stroke-width="5" fill="none" id="ring"></circle>
            <g transform="translate(0.000000,225.000000) scale(0.100000,-0.100000)"
 stroke="none">
<path d="M625 1719 c-237 -122 -438 -229 -449 -239 -21 -21 -24 -63 -6 -85 7
-8 73 -47 146 -86 l134 -70 0 -247 c0 -136 4 -252 8 -259 12 -20 151 -80 248
-108 135 -39 259 -56 418 -56 152 0 243 11 368 42 42 10 79 19 82 19 3 0 6
-25 6 -55 0 -52 -1 -55 -36 -71 -100 -48 -100 -210 0 -258 171 -81 303 160
140 256 -33 20 -34 21 -34 88 l0 68 67 32 c37 17 71 36 75 43 4 7 8 125 8 264
l0 252 121 62 c113 59 159 95 159 125 0 34 -75 78 -476 284 -420 214 -432 220
-490 220 -57 -1 -73 -8 -489 -221z m863 -21 c186 -95 376 -193 425 -218 l87
-47 -423 -216 c-341 -175 -431 -217 -463 -217 -31 0 -124 44 -452 213 -228
116 -415 216 -415 221 -1 4 185 104 413 222 324 167 423 213 453 214 31 0 109
-36 375 -172z m242 -706 l0 -218 -35 -17 c-20 -9 -38 -17 -40 -17 -3 0 -5 98
-5 218 l0 218 33 17 c17 8 35 16 40 16 4 1 7 -97 7 -217z m-935 72 c342 -175
301 -172 573 -35 110 55 204 101 207 101 3 0 5 -94 5 -210 l0 -209 -67 -21
c-116 -34 -239 -50 -388 -50 -204 0 -390 36 -545 106 l-60 27 0 213 c0 118 2
214 4 214 3 0 125 -61 271 -136z m859 -635 c57 -45 8 -144 -60 -122 -62 20
-70 102 -14 130 34 17 43 16 74 -8z"/>
<path d="M594 1501 c-90 -43 -113 -64 -97 -89 17 -28 44 -24 128 21 85 45 106
75 67 96 -15 8 -36 2 -98 -28z"/>
<path d="M725 1417 c-67 -35 -80 -46 -80 -67 0 -39 41 -37 122 4 81 40 102 60
86 84 -17 28 -44 24 -128 -21z"/>
            </symbol>
        </defs>
        </svg>