<?xml version="1.0" standalone="no"?>
<!DOCTYPE svg PUBLIC "-//W3C//DTD SVG 20010904//EN"
 "http://www.w3.org/TR/2001/REC-SVG-20010904/DTD/svg10.dtd">
<svg version="1.0" xmlns="http://www.w3.org/2000/svg"
 width="640.000000pt" height="427.000000pt" viewBox="0 0 640.000000 427.000000"
 preserveAspectRatio="xMidYMid meet">
<metadata>
Created by potrace 1.16, written by Peter Selinger 2001-2019
</metadata>
<g transform="translate(0.000000,427.000000) scale(0.100000,-0.100000)"
fill="#000000" stroke="none">
<path d="M0 3495 l0 -774 36 24 c41 28 103 33 143 12 14 -6 40 -34 59 -60 32
-45 34 -53 34 -124 -1 -42 -5 -80 -10 -85 -5 -5 -27 -8 -48 -6 -39 3 -39 3
-45 54 -8 63 -24 94 -49 94 -44 0 -50 -31 -50 -255 0 -225 6 -257 48 -263 28
-4 52 47 52 112 0 38 3 45 23 50 25 6 66 1 76 -10 3 -3 5 -43 5 -89 -2 -96
-23 -146 -77 -181 -62 -41 -125 -38 -175 8 l-22 21 0 -1011 0 -1012 3200 0
3200 0 0 989 0 988 -51 2 c-63 1 -74 9 -88 69 -13 55 -68 237 -82 270 -20 51
-29 6 -29 -153 0 -185 0 -186 -75 -175 l-40 5 -5 340 c-3 187 -3 358 0 380 l5
40 55 5 c41 5 58 2 70 -10 9 -9 33 -79 54 -155 50 -185 49 -185 61 -187 6 -2
12 64 15 177 l5 180 53 3 52 3 0 750 0 749 -3200 0 -3200 0 0 -775z m3211
-738 c21 -16 39 -51 39 -75 0 -11 -11 -35 -24 -54 -17 -25 -21 -40 -14 -52 6
-10 5 -16 -2 -16 -12 0 -2 -22 25 -55 16 -19 16 -19 4 5 -19 41 4 13 31 -38
32 -59 68 -82 103 -63 14 7 30 24 36 37 13 29 28 31 36 3 4 -11 22 -27 40 -36
31 -15 36 -15 60 1 14 9 34 31 45 49 10 18 24 37 29 44 17 19 13 36 -15 58
-35 28 -42 90 -15 125 15 19 23 22 32 13 6 -6 17 -9 24 -7 16 6 55 -47 55 -74
0 -11 -12 -34 -26 -51 -23 -28 -26 -39 -24 -99 2 -37 2 -109 1 -161 l-1 -94
-46 6 -46 5 38 -22 c21 -12 40 -30 42 -40 3 -16 -1 -17 -30 -11 -48 11 -291 8
-394 -5 -170 -21 -334 -65 -334 -89 0 -35 85 -41 310 -22 137 11 164 15 235
31 85 20 85 7 0 -16 -176 -47 -332 -64 -460 -50 -82 8 -115 25 -115 57 0 19
44 59 66 59 7 0 15 4 18 9 6 9 -64 -1 -82 -12 -10 -7 -22 24 -52 143 -6 25
-19 66 -27 92 -8 26 -13 55 -9 63 4 11 -2 15 -22 15 -52 0 -70 33 -47 86 17
42 45 45 75 7 16 -21 20 -35 15 -64 -6 -32 -3 -39 25 -63 35 -29 70 -41 100
-33 26 7 26 -9 -1 -23 -29 -16 -72 3 -109 49 -17 19 -30 30 -30 23 0 -18 79
-91 107 -98 18 -5 32 1 54 22 16 15 29 34 29 42 0 10 8 8 29 -7 34 -25 52 -26
90 -6 22 11 32 27 44 72 31 110 31 133 3 186 -30 56 -32 77 -11 117 12 24 22
30 48 30 17 0 39 -6 48 -13z m-2636 -28 c63 -29 78 -65 83 -194 3 -89 1 -119
-14 -155 -23 -60 -22 -113 8 -248 28 -128 26 -135 -44 -130 -41 3 -44 5 -55
43 -6 22 -19 79 -29 127 -16 82 -31 107 -55 92 -5 -3 -9 -63 -9 -134 0 -128 0
-130 -24 -136 -13 -3 -37 -4 -52 -2 l-29 3 -3 374 c-2 275 1 377 9 382 22 13
172 -2 214 -22z m5337 -29 c-6 -82 -97 -689 -105 -697 -6 -6 -48 -8 -94 -5
-24 2 -25 5 -44 144 -12 86 -22 118 -34 106 -4 -3 -14 -56 -24 -118 -19 -119
-25 -130 -77 -130 -60 0 -60 0 -121 362 -31 185 -53 343 -50 352 5 12 20 16
61 16 62 0 58 5 76 -110 16 -110 19 -122 33 -117 6 2 16 44 23 99 17 129 22
138 85 138 59 0 60 -3 78 -131 21 -146 35 -143 57 13 8 55 19 107 26 115 7 9
28 13 62 11 l51 -3 -3 -45z m-4952 17 c19 -12 43 -38 54 -57 20 -33 21 -51 21
-286 l0 -251 -27 -39 c-36 -51 -78 -76 -133 -76 -56 0 -97 25 -127 76 -22 40
-23 47 -23 291 1 276 3 286 65 339 42 35 121 37 170 3z m4200 -10 c19 -12 43
-38 54 -57 20 -33 21 -51 21 -275 0 -272 -2 -279 -78 -329 -50 -32 -113 -34
-172 -7 -94 43 -105 79 -105 338 0 255 11 288 105 337 46 24 135 21 175 -7z
m-3812 -7 c63 -39 72 -76 72 -323 0 -243 -4 -262 -64 -315 -32 -28 -43 -32
-96 -32 -49 0 -64 4 -91 27 -55 47 -59 69 -59 319 0 249 4 271 62 319 39 33
126 35 176 5z m239 -8 c7 -4 13 -37 15 -77 2 -39 7 -69 13 -69 5 1 24 28 42
60 43 79 48 84 91 84 71 0 71 -7 9 -130 -31 -61 -57 -120 -57 -129 0 -10 31
-94 69 -187 38 -93 66 -172 62 -176 -11 -12 -95 -20 -109 -10 -6 4 -29 51 -50
103 -51 129 -66 127 -70 -8 -3 -99 -4 -103 -26 -109 -13 -3 -35 -4 -47 -2
l-24 3 -3 315 c-1 173 0 320 3 327 5 14 63 17 82 5z m3057 -13 c59 -29 71 -59
71 -182 0 -97 -3 -116 -21 -145 -24 -37 -23 -46 20 -201 14 -52 23 -98 20
-102 -8 -14 -110 -11 -121 4 -5 6 -20 53 -33 102 -29 114 -36 127 -63 123 -21
-3 -22 -9 -27 -113 l-5 -110 -55 0 -55 0 0 315 0 315 45 7 c70 10 192 3 224
-13z m-2501 -5 c36 -6 37 -8 37 -50 l0 -43 -82 -3 -83 -3 -3 -64 c-2 -35 1
-68 5 -72 5 -5 28 -10 51 -11 57 -2 64 -8 60 -59 l-3 -44 -55 -5 -55 -5 -3
-67 c-3 -77 -12 -71 98 -72 l65 -1 3 -41 c2 -25 -2 -45 -10 -51 -16 -13 -241
-23 -260 -12 -10 7 -13 65 -15 276 -2 147 0 283 3 301 l5 32 102 0 c56 0 119
-3 140 -6z m1965 -8 c54 -28 81 -67 86 -124 7 -76 3 -82 -59 -82 -56 0 -65 8
-65 55 0 30 -25 55 -54 55 -44 0 -49 -19 -48 -191 1 -88 4 -169 7 -180 4 -10
17 -22 31 -25 36 -9 64 20 64 67 0 28 5 41 19 49 29 15 77 12 95 -6 23 -23 20
-92 -6 -144 -29 -55 -74 -80 -146 -80 -67 0 -109 18 -150 64 l-32 37 0 209 0
208 27 33 c52 61 166 89 231 55z m-1620 -23 c18 -9 42 -30 55 -47 20 -29 22
-43 25 -211 2 -160 1 -184 -16 -215 -29 -55 -90 -80 -198 -83 l-89 -2 -3 284
c-2 221 1 286 10 293 20 12 179 -2 216 -19z m-109 -829 c22 -29 27 -74 11
-104 -7 -13 -5 -29 6 -55 18 -44 11 -88 -19 -115 -16 -15 -35 -20 -79 -20
l-58 0 0 160 0 160 59 0 c52 0 62 -3 80 -26z m208 -104 c12 -69 22 -140 22
-157 1 -30 -2 -33 -28 -33 -26 0 -30 4 -33 33 -2 24 -8 32 -23 32 -14 0 -21
-8 -25 -30 -3 -18 -12 -31 -23 -33 -44 -9 -45 0 -20 140 30 171 34 180 76 176
l32 -3 22 -125z m183 115 c36 -18 48 -76 30 -142 -10 -35 -10 -55 -1 -100 14
-59 7 -78 -25 -71 -13 2 -23 20 -33 58 -8 30 -16 57 -18 59 -8 11 -18 -15 -23
-62 -4 -45 -8 -52 -25 -49 -11 2 -22 6 -24 8 -6 6 -1 296 5 306 9 13 83 9 114
-7z m211 -12 c18 -18 26 -76 16 -106 -6 -19 -6 -37 2 -53 20 -44 13 -83 -19
-115 -26 -27 -35 -30 -82 -27 l-53 3 -3 157 c-2 143 -1 157 15 160 29 6 112
-7 124 -19z m203 8 c13 -20 -7 -40 -42 -43 -35 -3 -37 -5 -40 -40 -3 -36 -2
-38 28 -38 28 0 31 -3 28 -27 -2 -22 -9 -29 -29 -31 -27 -3 -38 -22 -31 -54 2
-11 15 -18 40 -20 32 -3 37 -7 40 -30 l3 -28 -69 0 c-83 0 -79 -12 -74 188 l3
132 69 0 c38 0 71 -4 74 -9z m172 -16 c24 -24 25 -31 20 -83 -10 -89 -10 -124
-2 -169 9 -43 8 -43 -21 -43 -28 0 -31 3 -42 55 -7 30 -17 55 -22 55 -10 0
-10 -1 -12 -62 -2 -39 -5 -43 -29 -46 l-28 -3 0 160 0 161 55 0 c47 0 60 -4
81 -25z m187 8 c8 -10 17 -27 19 -38 4 -27 -41 -34 -58 -10 -7 9 -17 14 -23
10 -22 -13 -10 -48 28 -84 63 -57 75 -118 34 -163 -39 -43 -133 -8 -133 49 0
36 29 41 53 9 15 -21 22 -24 33 -15 21 17 18 25 -25 72 -21 23 -43 52 -50 64
-17 34 -13 81 9 103 26 26 91 27 113 3z m115 -50 c2 -41 8 -63 17 -67 22 -8
34 15 37 74 3 47 6 55 23 55 19 0 20 -8 23 -154 1 -86 -2 -159 -7 -164 -5 -5
-19 -6 -30 -2 -19 6 -22 13 -20 61 2 55 -10 82 -30 70 -6 -4 -11 -33 -11 -66
0 -60 -12 -76 -45 -64 -12 5 -15 31 -15 149 0 79 3 151 6 160 4 9 15 15 28 13
18 -3 21 -11 24 -65z m272 47 c28 -28 33 -58 28 -165 -3 -82 -7 -98 -28 -120
-31 -33 -78 -34 -108 -2 -19 20 -22 35 -23 141 -1 109 1 119 22 142 28 30 81
32 109 4z m200 -12 c15 -17 20 -35 20 -78 0 -67 -14 -89 -60 -99 -34 -6 -35
-8 -40 -61 -5 -51 -7 -55 -30 -55 l-25 0 -3 145 c-1 79 0 150 2 157 4 8 25 13
60 13 44 0 59 -5 76 -22z m-2337 -124 c183 -4 290 -10 294 -17 4 -7 -92 -8
-318 -4 -550 12 -816 21 -774 28 41 6 280 4 798 -7z m3582 7 c51 -7 38 -9 -80
-10 -77 -1 -205 -4 -285 -7 -255 -10 -685 -20 -697 -16 -36 12 -2 20 90 22
125 3 686 15 817 17 52 1 122 -2 155 -6z"/>
<path d="M471 2606 c-8 -9 -11 -46 -9 -107 3 -92 3 -94 29 -97 43 -5 60 26 60
109 0 46 -5 77 -13 85 -22 20 -54 26 -67 10z"/>
<path d="M859 2613 c-24 -6 -29 -46 -29 -242 0 -187 8 -223 46 -229 11 -2 26
3 32 11 12 15 19 409 7 439 -7 17 -30 26 -56 21z"/>
<path d="M5028 2603 c-21 -5 -20 6 -18 -238 1 -115 6 -195 12 -202 6 -7 24
-13 39 -13 43 0 49 27 49 228 0 217 -10 245 -82 225z"/>
<path d="M1220 2387 c0 -220 3 -237 41 -237 41 0 49 35 49 222 0 208 -5 228
-55 228 l-35 0 0 -213z"/>
<path d="M4496 2564 c-3 -9 -6 -44 -6 -79 0 -91 29 -117 84 -74 23 18 26 28
26 79 0 40 -5 64 -16 74 -21 21 -80 21 -88 0z"/>
<path d="M2374 2547 c-2 -7 -3 -89 -2 -182 l3 -170 26 -3 c52 -6 59 14 59 179
0 85 -5 159 -10 170 -12 22 -68 27 -76 6z"/>
</g>
</svg>
