<?xml version="1.0" standalone="no"?>
<!DOCTYPE svg PUBLIC "-//W3C//DTD SVG 20010904//EN"
 "http://www.w3.org/TR/2001/REC-SVG-20010904/DTD/svg10.dtd">
<svg version="1.0" xmlns="http://www.w3.org/2000/svg"
 width="348.000000pt" height="145.000000pt" viewBox="0 0 348.000000 145.000000"
 preserveAspectRatio="xMidYMid meet">
<metadata>
Created by potrace 1.16, written by Peter Selinger 2001-2019
</metadata>
<g transform="translate(0.000000,145.000000) scale(0.100000,-0.100000)"
fill="#000000" stroke="none">
<path d="M0 725 l0 -725 703 1 c386 1 689 4 672 6 -67 9 -132 34 -157 60 -48
51 -53 129 -12 174 34 37 124 33 124 -6 0 -13 -3 -13 -20 -3 -30 19 -55 -1
-55 -43 0 -30 3 -34 30 -37 21 -2 49 9 95 38 112 70 149 85 216 85 40 0 69 -6
86 -17 25 -16 28 -16 60 0 20 11 56 17 93 17 63 0 72 -4 209 -89 68 -41 110
-46 126 -15 9 16 8 26 -5 45 -17 27 -27 29 -56 14 -29 -16 -24 6 6 26 47 31
119 -9 131 -72 4 -21 -1 -47 -14 -76 -23 -52 -73 -82 -162 -97 -36 -5 200 -9
678 -10 l732 -1 0 725 0 725 -1172 -1 c-710 0 -1164 -4 -1150 -9 28 -12 30
-60 2 -85 -15 -13 -17 -22 -10 -36 27 -49 -8 -122 -64 -138 -70 -19 -146 26
-146 86 0 28 26 83 40 83 13 0 13 -27 0 -35 -12 -7 -14 -75 -2 -75 4 0 31 43
61 94 29 52 63 99 75 104 15 8 -151 11 -546 11 l-568 1 0 -725z m1585 675
c-19 -37 -19 -37 5 -43 26 -7 26 -36 -2 -83 l-21 -37 21 12 c12 7 33 29 46 49
32 51 50 64 83 60 59 -7 22 -95 -42 -102 -18 -2 -31 -10 -33 -20 -5 -23 39
-21 70 3 38 30 83 101 80 127 -6 41 16 34 39 -13 l22 -46 -22 -40 c-46 -80 4
-55 73 36 31 42 54 63 63 60 8 -3 12 -12 8 -22 -4 -9 -10 -35 -14 -58 -15 -76
12 -51 80 75 22 39 46 72 54 72 19 0 19 -4 0 -40 -15 -29 -15 -30 9 -30 36 0
37 -19 4 -79 -50 -90 -8 -79 57 16 33 48 46 59 73 61 23 2 34 -2 39 -14 6 -15
2 -28 -22 -88 -17 -40 35 5 63 54 26 48 29 50 70 50 55 0 62 -17 27 -76 -31
-53 -29 -63 8 -33 22 16 27 17 27 5 0 -37 -106 -79 -133 -52 -13 13 -18 10
-45 -34 -17 -28 -36 -50 -42 -50 -16 0 -12 13 16 64 l26 47 -38 -16 c-61 -27
-70 -28 -87 -10 -15 15 -18 15 -41 0 -19 -13 -29 -14 -45 -5 -12 6 -21 13 -21
17 0 3 14 30 31 59 17 30 28 54 26 54 -21 0 -42 -20 -73 -71 -32 -53 -39 -59
-69 -59 -18 0 -40 -3 -48 -6 -8 -3 -21 2 -30 10 -13 14 -18 14 -47 0 -29 -15
-33 -15 -47 -1 -14 14 -13 20 11 62 31 53 26 76 -7 30 -62 -87 -120 -118 -166
-88 -29 19 -55 18 -85 -3 -26 -18 -50 -18 -66 1 -11 13 -15 13 -40 0 -32 -16
-60 -11 -60 11 0 8 9 33 21 55 11 23 19 43 17 45 -2 2 -27 -23 -56 -56 -55
-62 -84 -79 -107 -60 -10 9 -19 9 -35 0 -59 -31 -65 22 -12 100 42 62 72 74
103 42 18 -20 18 -21 -7 -67 -15 -25 -23 -49 -19 -53 4 -4 31 19 60 50 40 43
53 64 52 84 -1 15 4 29 11 31 6 3 12 0 12 -7 0 -6 9 -24 21 -39 l21 -29 -27
-46 c-21 -35 -23 -46 -12 -46 21 0 66 55 112 138 26 47 46 72 58 72 16 0 16
-2 2 -30z m-1071 -455 c12 -12 15 -48 15 -190 0 -211 3 -205 -110 -205 l-79 0
0 205 0 205 79 0 c58 0 84 -4 95 -15z m310 -1 c24 -23 24 -355 0 -378 -19 -20
-144 -22 -162 -4 -17 17 -17 369 0 386 18 18 143 16 162 -4z m310 0 c20 -19
23 -193 4 -212 -8 -8 -8 -28 0 -81 17 -101 17 -101 -22 -101 -38 0 -40 4 -52
108 -4 42 -11 62 -20 62 -11 0 -14 -20 -14 -85 l0 -85 -35 0 -35 0 0 205 0
205 79 0 c59 0 84 -4 95 -16z m304 4 c8 -8 12 -66 12 -195 0 -170 -1 -183 -19
-193 -27 -14 -144 -13 -159 2 -17 17 -17 369 0 386 16 16 150 16 166 0z m310
0 c8 -8 12 -66 12 -195 0 -213 6 -203 -114 -203 l-76 0 0 205 0 205 83 0 c51
0 88 -5 95 -12z m202 -193 l0 -205 -35 0 -35 0 0 205 0 205 35 0 35 0 0 -205z
m216 130 l22 -70 1 73 1 72 35 0 35 0 0 -205 0 -205 -38 0 -37 0 -20 83 -20
82 -3 -82 -3 -83 -34 0 -35 0 0 206 0 205 37 -3 c36 -3 37 -4 59 -73z m392 63
c7 -7 12 -35 12 -64 0 -45 -3 -52 -22 -58 -42 -11 -48 -7 -48 29 0 31 -3 35
-25 35 -23 0 -25 -3 -25 -51 0 -50 1 -51 26 -46 15 2 42 1 60 -5 l34 -9 0
-102 c0 -67 -4 -107 -12 -115 -7 -7 -40 -12 -79 -12 -84 0 -99 12 -99 80 0 41
3 49 23 54 39 10 46 7 49 -26 2 -25 8 -33 23 -33 17 0 20 7 22 48 l2 47 -40 0
c-74 0 -79 8 -79 118 0 63 4 102 12 110 16 16 150 16 166 0z m204 -70 l3 -83
25 80 26 80 38 3 c30 3 37 0 33 -11 -16 -41 -57 -180 -57 -192 0 -12 41 -151
57 -192 4 -9 -5 -13 -31 -13 -41 0 -42 1 -74 110 l-20 65 -1 -87 -1 -88 -35 0
-35 0 0 205 0 205 35 0 34 0 3 -82z m308 -123 l0 -205 -35 0 -35 0 0 205 0
205 35 0 35 0 0 -205z"/>
<path d="M1630 59 c-47 -25 -98 -43 -135 -48 -42 -6 24 -9 215 -9 164 0 255 4
225 8 -62 10 -155 44 -188 70 -14 11 -29 19 -34 19 -4 -1 -42 -19 -83 -40z"/>
</g>
</svg>
