<?xml version="1.0" standalone="no"?>
<!DOCTYPE svg PUBLIC "-//W3C//DTD SVG 20010904//EN"
 "http://www.w3.org/TR/2001/REC-SVG-20010904/DTD/svg10.dtd">
<svg version="1.0" xmlns="http://www.w3.org/2000/svg"
 width="280.000000pt" height="480.000000pt" viewBox="0 0 280.000000 480.000000"
 preserveAspectRatio="xMidYMid meet">
<metadata>
Created by potrace 1.16, written by Peter Selinger 2001-2019
</metadata>
<g transform="translate(0.000000,480.000000) scale(0.100000,-0.100000)"
fill="#000000" stroke="none">
<path d="M862 4553 c-13 -3 -21 -10 -19 -17 4 -9 -12 -10 -67 -3 -86 12 -164
10 -185 -4 -12 -7 -7 -8 18 -3 45 8 134 -4 157 -22 18 -13 17 -14 -11 -8 -29
6 -29 6 -10 -9 11 -9 29 -17 40 -17 12 -1 15 -4 7 -7 -17 -6 -72 16 -72 29 0
6 -5 6 -14 -1 -10 -9 -29 -6 -77 9 -63 19 -187 28 -144 10 18 -8 18 -9 -5 -10
-54 -3 -78 -9 -143 -34 -37 -14 -82 -26 -100 -26 -45 0 -97 -16 -111 -35 -10
-14 -18 -15 -59 -3 -35 9 -50 9 -58 1 -9 -9 -3 -12 22 -13 44 -1 172 -6 229
-10 25 -2 -10 -6 -76 -11 -150 -9 -184 -23 -184 -74 0 -19 5 -35 10 -35 6 0
10 5 10 10 0 6 7 10 16 10 14 0 14 -2 0 -15 -8 -8 -19 -15 -25 -15 -7 0 -11
-38 -11 -108 l0 -108 38 4 c30 3 39 0 39 -12 0 -12 -10 -16 -39 -16 l-39 0 3
-62 c2 -41 7 -63 16 -64 6 -1 23 -2 37 -3 14 0 25 -5 25 -11 0 -5 -13 -7 -32
-3 -24 5 -29 3 -23 -7 6 -10 4 -12 -7 -8 -13 6 -15 -14 -17 -154 l-1 -160 25
6 c14 4 25 2 25 -4 0 -5 -10 -10 -23 -10 -22 0 -24 -5 -25 -55 -1 -31 3 -53 7
-50 17 10 32 -41 19 -66 -5 -11 -2 -21 6 -28 8 -7 16 -8 18 -4 1 5 17 18 33
30 24 16 35 19 49 11 14 -8 17 -7 12 1 -14 22 27 74 68 85 14 3 10 -4 -14 -29
-19 -19 -34 -44 -35 -54 -1 -18 1 -18 28 5 16 14 36 23 44 20 8 -3 12 -2 9 2
-3 4 5 14 16 21 20 12 21 11 15 -19 -4 -17 -3 -29 2 -25 5 3 11 1 13 -5 2 -6
9 -1 15 10 11 16 10 18 -2 14 -8 -4 -15 -1 -15 5 0 6 9 11 21 11 17 0 20 -5
16 -27 -2 -16 -2 -22 0 -15 3 6 9 12 14 12 6 0 7 -6 3 -12 -4 -7 1 -6 12 3 10
9 27 19 37 22 14 5 13 0 -8 -27 -14 -18 -22 -36 -19 -39 4 -4 1 -13 -6 -22 -7
-8 -10 -15 -8 -15 9 0 44 35 72 73 16 20 32 37 36 37 13 0 7 -29 -7 -34 -8 -3
-11 -10 -8 -16 3 -5 -1 -10 -9 -10 -8 0 -18 -5 -22 -11 -4 -8 1 -9 17 -3 13 4
30 7 37 7 6 0 12 6 12 13 0 7 9 18 20 24 22 12 17 40 -9 40 -14 0 -14 2 -1 10
18 12 30 13 29 3 -4 -27 2 -32 27 -22 15 5 29 7 32 4 3 -3 -9 -10 -27 -16 -19
-7 -30 -17 -27 -24 2 -7 -1 -24 -9 -38 l-13 -25 29 16 c18 11 24 19 16 24 -7
5 -3 8 11 8 12 0 22 6 22 13 0 29 123 68 137 43 3 -6 3 -8 -2 -4 -4 4 -14 3
-22 -4 -7 -6 -16 -8 -20 -5 -3 3 -26 -8 -50 -24 -30 -21 -42 -36 -39 -46 4
-10 2 -13 -7 -10 -7 3 -24 -4 -38 -14 -13 -10 -19 -19 -12 -19 6 0 15 5 19 11
4 8 10 6 17 -6 9 -17 11 -17 26 2 21 26 97 73 105 66 8 -8 -24 -43 -39 -43 -7
0 -20 -10 -31 -21 -19 -22 -19 -22 5 -9 21 11 23 10 18 -4 -4 -10 -3 -15 2
-11 18 10 42 -7 36 -26 -4 -13 3 -10 26 12 31 29 50 34 79 21 23 -11 21 -38
-3 -38 -11 1 -22 -6 -25 -14 -5 -13 -3 -13 13 0 17 14 18 13 12 -3 -4 -11 -1
-25 8 -34 14 -14 18 -14 34 1 9 9 32 21 50 27 21 7 30 16 27 25 -3 8 -1 14 4
14 6 0 10 -7 10 -15 0 -16 12 -20 24 -8 3 4 14 8 22 9 13 2 13 0 -2 -17 -11
-13 -24 -17 -37 -13 -15 5 -19 3 -14 -9 3 -9 1 -18 -6 -21 -7 -4 2 -4 18 -1
26 5 28 4 13 -8 -15 -12 -14 -15 17 -26 24 -8 32 -16 28 -28 -5 -13 -3 -14 15
-4 18 10 21 9 16 -4 -4 -8 -14 -15 -24 -15 -11 0 -22 -5 -26 -11 -4 -8 1 -9
16 -4 18 6 22 4 17 -8 -4 -11 -2 -14 9 -10 7 3 14 9 14 13 0 4 14 6 30 4 17
-2 30 1 30 6 0 5 12 5 29 -1 21 -8 36 -7 51 1 12 6 24 9 27 6 4 -3 21 5 39 19
18 14 37 25 41 25 5 0 18 7 29 16 18 14 18 15 -3 4 -19 -9 -23 -8 -23 4 0 8 3
16 8 19 4 2 1 2 -6 0 -8 -2 -32 -5 -55 -8 -40 -5 -40 -4 -12 6 17 6 44 15 60
20 27 8 26 8 -12 5 -39 -4 -42 -2 -33 14 15 28 13 30 -22 25 l-33 -5 33 15
c46 22 40 26 -14 10 -44 -13 -74 -32 -101 -64 -7 -8 -15 -12 -19 -9 -8 8 41
55 66 63 11 3 20 11 20 16 0 5 6 9 13 9 6 0 23 10 37 21 22 18 22 20 5 16 -11
-3 -29 -8 -40 -12 -11 -4 -5 3 13 15 17 12 32 24 32 25 0 2 -15 -2 -32 -9 -18
-8 -55 -13 -83 -11 -27 1 -53 -3 -57 -9 -5 -7 -8 -4 -8 7 0 9 8 18 18 19 40 4
48 6 77 18 l30 12 -25 10 c-18 7 -33 5 -55 -5 -38 -19 -77 -28 -69 -16 3 5 12
9 21 9 19 0 73 38 73 52 0 6 -9 3 -19 -6 -11 -10 -25 -15 -30 -11 -6 3 -11 1
-11 -5 0 -7 -7 -5 -16 4 -9 9 -12 21 -8 28 5 7 -4 5 -19 -4 -33 -22 -36 -22
-33 -2 3 18 33 44 50 44 6 0 -2 -9 -19 -20 -36 -24 -30 -26 12 -5 29 15 49 42
39 53 -3 2 -19 -1 -37 -7 -18 -6 -41 -11 -52 -11 -20 0 -20 0 1 23 12 13 20
26 16 29 -3 4 4 11 15 18 12 6 21 15 21 21 0 5 -11 2 -25 -7 -14 -9 -25 -14
-25 -11 0 3 -16 1 -35 -3 -20 -5 -33 -4 -29 1 3 5 14 9 24 9 10 0 22 5 25 10
8 12 8 12 -33 1 -17 -5 -32 -6 -32 -1 0 14 30 20 101 20 38 0 69 3 69 8 0 4
-30 6 -67 4 -64 -2 -67 -2 -48 13 19 16 18 16 -17 10 -42 -8 -81 1 -60 14 6 4
44 4 84 -1 49 -5 74 -4 79 4 4 6 12 7 18 4 6 -4 18 -3 27 2 10 6 29 5 50 -1
25 -8 40 -7 58 2 13 8 29 11 34 7 6 -3 13 -2 17 4 8 13 60 13 83 1 26 -15 106
-31 150 -31 21 0 42 -3 46 -7 11 -11 39 -13 52 -2 7 6 25 -1 53 -21 l41 -30
20 32 c11 18 23 48 26 66 8 40 -2 165 -17 213 -5 19 -14 56 -19 82 -13 64
-131 304 -178 360 -66 81 -164 152 -254 187 -121 46 -170 58 -175 43 -3 -7 -9
-13 -14 -13 -6 0 -7 5 -4 10 4 7 -8 8 -36 4 -31 -5 -40 -4 -35 4 7 12 -51 15
-102 5z"/>
<path d="M499 2933 c-1 -5 -2 -173 -3 -374 l-1 -366 125 -6 c69 -3 294 -4 500
-1 415 6 456 3 465 -28 11 -32 -6 -39 -91 -40 -47 0 -88 -6 -101 -14 -18 -11
-23 -11 -33 1 -17 20 -33 19 -61 -4 l-24 -19 28 -7 c15 -4 27 -11 27 -17 0 -5
-9 -6 -20 -3 -17 5 -21 1 -26 -24 -5 -22 -10 -28 -23 -24 -12 4 -11 2 3 -9 19
-15 19 -16 -2 -22 -12 -4 -27 -16 -33 -27 -7 -14 -17 -18 -32 -15 -12 3 -16 3
-9 0 6 -3 10 -10 7 -15 -4 -5 1 -6 10 -3 13 5 15 0 11 -31 -5 -42 -12 -51 -39
-57 -19 -3 -51 -74 -41 -89 6 -11 -29 -29 -55 -29 -12 0 -21 -6 -21 -13 0 -7
-9 -23 -20 -35 -19 -20 -18 -26 2 -23 20 3 -7 -28 -30 -34 -16 -4 -22 -9 -14
-14 8 -5 -2 -19 -30 -41 -47 -40 -80 -60 -89 -54 -4 2 -12 -3 -19 -11 -7 -8
-19 -15 -26 -15 -8 0 -14 -4 -14 -9 0 -5 -13 -12 -30 -16 -16 -4 -30 -11 -30
-16 0 -5 -20 -8 -45 -7 -25 1 -45 7 -45 13 0 5 -4 4 -9 -4 -5 -7 -13 -11 -19
-7 -5 3 -21 -3 -34 -14 -14 -10 -43 -20 -64 -21 -21 -1 -45 -7 -52 -12 -17
-13 -82 -18 -82 -6 0 5 -11 9 -23 9 -20 0 -26 9 -40 58 -34 118 -41 181 -42
357 -1 99 -4 189 -7 200 -4 11 -7 27 -7 35 -1 8 -10 30 -22 49 -19 31 -21 32
-34 15 -7 -10 -11 -23 -8 -27 3 -5 -3 -15 -13 -23 -11 -9 -14 -13 -8 -10 7 3
9 -3 7 -18 -5 -22 -7 -21 -49 24 -42 45 -44 50 -42 101 2 30 -1 64 -5 77 -7
18 1 32 47 80 31 33 56 64 56 69 0 18 -69 73 -90 73 -11 0 -29 9 -40 20 -11
11 -24 20 -29 20 -5 0 -14 7 -21 15 -7 8 -19 15 -26 15 -12 0 -14 -47 -14
-265 l0 -265 24 0 c13 0 38 -6 56 -14 19 -7 51 -11 75 -8 37 4 45 1 55 -18 9
-18 8 -25 -6 -41 -9 -10 -25 -19 -34 -19 -23 0 -70 -38 -70 -56 0 -23 24 -27
65 -10 45 19 75 7 75 -29 0 -28 -53 -65 -93 -65 -14 0 -29 -4 -32 -10 -3 -5 3
-10 15 -10 13 0 18 -4 14 -11 -4 -7 -29 -9 -75 -4 l-69 7 0 -334 0 -334 35
-42 c20 -23 42 -39 49 -36 9 3 13 -2 12 -18 -3 -29 11 -48 29 -42 7 3 22 -3
32 -13 10 -10 28 -22 40 -28 32 -15 103 -76 103 -89 0 -6 9 -17 20 -24 24 -14
27 -37 4 -28 -29 11 -5 -11 26 -24 19 -8 29 -18 26 -26 -3 -9 7 -15 30 -20 19
-3 37 -10 40 -15 9 -15 41 -10 48 7 4 9 13 14 21 10 8 -3 15 -1 15 3 0 5 20 9
45 9 33 -1 46 -6 50 -19 3 -9 18 -22 34 -28 27 -12 71 -78 71 -108 0 -12 -8
-14 -37 -9 -30 5 -34 4 -20 -4 28 -18 22 -41 -10 -35 -16 3 -22 2 -15 -1 16
-8 5 -24 -17 -24 -15 0 -18 -7 -15 -35 1 -19 -2 -35 -7 -35 -5 0 -9 -7 -9 -15
0 -9 -9 -15 -21 -15 -19 0 -19 -1 -4 -16 19 -19 14 -40 -8 -38 -9 1 -14 -2
-11 -7 2 -5 -3 -20 -12 -34 -9 -14 -14 -28 -10 -32 3 -3 1 -12 -5 -19 -13 -16
14 -21 158 -30 137 -8 187 -1 178 26 -3 10 -1 21 5 25 7 4 7 12 0 24 -6 12 -6
30 0 52 13 43 13 44 -3 31 -7 -6 -24 -34 -37 -62 -25 -54 -45 -67 -33 -22 4
15 7 37 8 50 0 12 3 22 8 22 4 0 7 7 7 15 0 8 4 15 9 15 9 0 71 121 71 139 0
11 36 78 53 99 6 8 34 25 61 39 47 24 64 27 236 34 102 4 208 13 235 20 126
31 154 41 159 54 3 8 15 15 26 15 27 0 62 19 55 29 -2 5 3 8 12 7 22 -1 62 69
84 149 14 51 14 73 5 143 l-11 84 -22 -24 c-13 -13 -23 -30 -23 -36 0 -7 -4
-12 -10 -12 -5 0 -10 11 -10 24 0 45 89 114 183 141 30 9 60 22 67 30 18 22 6
97 -19 113 -26 18 -27 39 -1 47 38 12 68 66 75 137 6 58 4 73 -15 112 -27 56
-23 87 10 97 14 4 52 15 85 25 80 23 112 40 131 69 12 18 13 28 4 44 -15 29
-65 27 -141 -4 -33 -13 -87 -27 -120 -31 -55 -6 -59 -5 -59 14 0 26 23 69 46
88 14 11 15 17 7 20 -20 8 -15 32 7 44 16 9 20 21 20 63 0 94 -7 91 269 96
l241 3 0 374 0 374 -1020 0 c-561 0 -1020 -3 -1021 -7z m1149 -915 c41 -85 50
-132 25 -147 -17 -11 -17 -12 2 -7 19 5 20 1 21 -49 0 -37 -4 -55 -13 -55 -15
0 -63 -62 -63 -82 0 -8 -7 -23 -15 -34 -18 -24 -19 -37 -2 -29 6 4 2 -2 -11
-13 -13 -13 -20 -26 -16 -36 4 -10 -1 -25 -11 -36 -17 -19 -17 -20 5 -20 16 0
20 -4 16 -15 -13 -35 23 -50 81 -33 13 4 15 -7 7 -52 -6 -34 -47 -81 -75 -88
-8 -2 -21 -10 -30 -18 -22 -20 -31 -17 -24 6 8 25 -3 26 -21 3 -8 -11 -13 -13
-14 -5 0 14 -30 17 -30 3 0 -6 -12 -6 -32 0 -18 5 -34 9 -35 9 -1 0 0 -7 3
-15 4 -9 0 -15 -10 -15 -21 0 -21 34 1 56 16 16 16 16 -7 9 -14 -5 -43 -9 -65
-9 -38 -1 -40 1 -45 34 -5 30 -7 32 -13 14 -5 -14 -18 -23 -39 -26 l-30 -5 23
18 c35 26 17 34 -22 10 -44 -27 -53 -26 -45 5 5 20 3 27 -14 31 -26 7 -25 13
8 40 15 13 19 20 10 17 -10 -3 -24 1 -32 9 -14 13 -13 18 7 39 12 13 31 24 42
25 37 2 88 12 94 19 3 3 -5 5 -19 4 -46 -4 -70 0 -70 11 0 6 9 9 20 6 13 -3
25 2 35 16 10 15 15 17 15 7 1 -11 5 -10 18 5 9 12 26 24 36 28 10 4 16 10 13
14 -4 3 -3 11 2 17 5 6 14 28 21 49 6 20 16 35 21 32 5 -4 9 -1 9 5 0 7 6 10
13 7 7 -3 21 1 31 8 20 15 109 11 114 -5 2 -5 16 3 30 19 27 28 62 47 62 33 0
-5 -5 -13 -12 -20 -9 -9 -8 -12 4 -12 17 0 32 26 22 41 -3 6 -13 7 -22 5 -10
-3 -24 -1 -32 4 -13 8 -12 10 3 10 16 0 16 3 3 35 -13 30 -13 35 -1 35 9 0 12
6 9 15 -5 12 -9 13 -21 4 -22 -19 -31 1 -21 47 6 28 15 44 28 47 14 4 17 11
13 27 -11 41 13 13 45 -52z"/>
<path d="M378 453 l22 -4 -22 -20 -23 -20 25 7 c22 6 23 5 11 -10 -7 -9 -23
-16 -34 -16 -20 0 -20 -1 -2 -13 17 -13 17 -14 -6 -22 -13 -4 -28 -7 -32 -6
-5 1 -6 -3 -2 -9 3 -5 13 -10 21 -10 20 0 18 -6 -21 -47 -23 -24 -31 -39 -23
-44 6 -4 8 -13 5 -21 -6 -16 29 -32 94 -43 26 -5 44 -2 62 10 16 10 34 14 47
10 11 -3 20 -2 20 3 0 5 -9 12 -21 15 -12 3 -18 10 -14 17 4 6 13 9 19 7 7 -3
19 -1 27 4 10 6 7 9 -13 9 -15 0 -31 6 -35 13 -4 6 -21 20 -38 29 -16 9 -28
20 -27 24 2 4 -2 10 -9 15 -9 5 -6 11 12 19 13 6 30 23 37 37 16 35 15 43 -3
43 -9 0 -18 7 -21 15 -4 10 -18 15 -43 14 -23 -1 -28 -3 -13 -6z"/>
</g>
</svg>
