<?xml version="1.0" standalone="no"?>
<!DOCTYPE svg PUBLIC "-//W3C//DTD SVG 20010904//EN"
 "http://www.w3.org/TR/2001/REC-SVG-20010904/DTD/svg10.dtd">
<svg version="1.0" xmlns="http://www.w3.org/2000/svg"
 width="349.000000pt" height="144.000000pt" viewBox="0 0 349.000000 144.000000"
 preserveAspectRatio="xMidYMid meet">

<g transform="translate(0.000000,144.000000) scale(0.100000,-0.100000)"
fill="#000000" stroke="none">
<path d="M2000 700 l0 -190 -25 0 c-14 0 -25 -4 -25 -10 0 -5 14 -10 30 -10
l30 0 0 200 c0 110 -2 200 -5 200 -3 0 -5 -85 -5 -190z"/>
<path d="M2310 700 l0 -190 -31 0 c-17 0 -28 -4 -24 -10 3 -5 19 -10 36 -10
l29 0 0 200 c0 110 -2 200 -5 200 -3 0 -5 -85 -5 -190z"/>
<path d="M2906 802 c-16 -49 -27 -95 -24 -103 3 -8 19 29 36 81 35 103 36 110
24 110 -5 0 -21 -40 -36 -88z"/>
<path d="M3130 700 l0 -190 -25 0 c-14 0 -25 -4 -25 -10 0 -5 14 -10 30 -10
l30 0 0 200 c0 110 -2 200 -5 200 -3 0 -5 -85 -5 -190z"/>
<path d="M882 717 c-1 -93 -7 -177 -12 -188 -9 -16 -22 -19 -83 -19 -50 0 -67
-3 -57 -10 22 -14 123 -12 143 3 16 11 17 32 14 197 l-2 185 -3 -168z"/>
<path d="M1192 793 c-1 -55 -7 -95 -13 -99 -11 -6 -9 -51 7 -146 6 -36 5 -38
-20 -38 -14 0 -26 -4 -26 -10 0 -5 16 -10 35 -10 31 0 35 3 31 23 -25 113 -27
141 -17 161 7 13 11 58 8 116 l-3 95 -2 -92z"/>
<path d="M1490 710 c0 -123 -4 -180 -12 -188 -7 -7 -41 -12 -82 -12 -50 0 -66
-3 -56 -10 8 -5 41 -10 73 -10 94 0 97 7 97 203 0 89 -5 169 -10 177 -6 10
-10 -43 -10 -160z"/>
<path d="M1800 708 c0 -122 -4 -178 -12 -186 -7 -7 -42 -12 -85 -12 -47 0 -73
-4 -73 -11 0 -18 168 -8 180 11 13 20 13 357 0 365 -7 4 -10 -54 -10 -167z"/>
<path d="M2618 834 c-3 -42 -6 -49 -28 -54 -15 -4 -20 -9 -13 -13 6 -4 22 -3
35 2 20 7 23 15 21 56 -3 63 -11 69 -15 9z"/>
<path d="M572 809 c-1 -36 -6 -69 -12 -75 -5 -5 -6 -15 0 -24 15 -24 21 8 17
91 l-3 74 -2 -66z"/>
<path d="M442 815 c0 -16 2 -22 5 -12 2 9 2 23 0 30 -3 6 -5 -1 -5 -18z"/>
<path d="M1072 815 c0 -16 2 -22 5 -12 2 9 2 23 0 30 -3 6 -5 -1 -5 -18z"/>
<path d="M1374 730 c0 -63 1 -89 3 -57 2 31 2 83 0 115 -2 31 -3 5 -3 -58z"/>
<path d="M1684 730 c0 -63 1 -89 3 -57 2 31 2 83 0 115 -2 31 -3 5 -3 -58z"/>
<path d="M2502 815 c0 -16 2 -22 5 -12 2 9 2 23 0 30 -3 6 -5 -1 -5 -18z"/>
<path d="M120 685 c-32 -34 -16 -46 16 -13 14 14 22 28 16 31 -5 4 -20 -5 -32
-18z"/>
<path d="M2622 625 c-1 -55 -7 -96 -14 -103 -7 -7 -41 -12 -82 -12 -50 0 -66
-3 -56 -10 22 -14 123 -12 143 3 15 10 17 27 14 112 l-3 100 -2 -90z"/>
<path d="M3442 687 c-25 -27 -28 -37 -9 -37 16 0 47 32 47 48 0 19 -14 14 -38
-11z"/>
<path d="M570 622 c0 -98 -12 -112 -101 -112 -39 0 -69 -4 -69 -10 0 -6 31
-10 74 -10 100 0 106 7 106 116 0 46 -2 84 -5 84 -3 0 -5 -30 -5 -68z"/>
<path d="M2465 670 c3 -5 15 -10 26 -10 10 0 19 5 19 10 0 6 -12 10 -26 10
-14 0 -23 -4 -19 -10z"/>
<path d="M2891 674 c-1 -5 10 -41 23 -80 14 -38 25 -64 25 -58 1 5 -10 41 -23
80 -14 38 -25 64 -25 58z"/>
<path d="M442 645 c0 -16 2 -22 5 -12 2 9 2 23 0 30 -3 6 -5 -1 -5 -18z"/>
<path d="M2811 553 c-1 -39 -3 -43 -26 -43 -14 0 -25 -4 -25 -10 0 -16 60 -12
66 5 3 8 2 32 -4 52 l-10 38 -1 -42z"/>
<path d="M1070 545 c0 -31 -3 -35 -25 -35 -14 0 -25 -4 -25 -10 0 -5 14 -10
30 -10 29 0 30 2 30 45 0 25 -2 45 -5 45 -3 0 -5 -16 -5 -35z"/>
<path d="M2190 530 c0 -15 -7 -20 -25 -20 -14 0 -25 -4 -25 -10 0 -5 14 -10
30 -10 27 0 30 3 30 30 0 17 -2 30 -5 30 -3 0 -5 -9 -5 -20z"/>
<path d="M2918 513 c-37 -6 -36 -23 2 -23 20 0 30 5 30 15 0 8 -1 14 -2 14 -2
-1 -15 -4 -30 -6z"/>
</g>
</svg>
